<svg id="Capa_1" enable-background="new 0 0 512 512" height="512" viewBox="0 0 512 512" width="512" xmlns="http://www.w3.org/2000/svg"><g><g><path d="m256 7.5c-26.779 0-48.488 21.709-48.488 48.488s21.709 48.488 48.488 48.488 48.488-21.709 48.488-48.488-21.709-48.488-48.488-48.488zm0 64.65c-8.926 0-16.163-7.236-16.163-16.163s7.237-16.162 16.163-16.162 16.163 7.236 16.163 16.163-7.237 16.162-16.163 16.162z" fill="#ffd064"/></g><g><path d="m280.284 14.026c4.143 7.143 6.526 15.432 6.526 24.284 0 26.779-21.709 48.488-48.488 48.488-8.852 0-17.141-2.383-24.284-6.526 8.391 14.467 24.034 24.204 41.962 24.204 26.779 0 48.488-21.709 48.488-48.488 0-17.928-9.737-33.572-24.204-41.962z" fill="#ffc250"/></g><g><circle cx="256" cy="304.488" fill="#eab14d" r="200.012"/></g><g><path d="m372.865 142.165c23.71 32.875 37.689 73.236 37.689 116.865 0 110.464-89.549 200.012-200.012 200.012-43.63 0-83.99-13.979-116.865-37.689 36.321 50.36 95.489 83.147 162.323 83.147 110.464 0 200.012-89.549 200.012-200.012 0-66.834-32.787-126.002-83.147-162.323z" fill="#e7a52e"/></g><g><circle cx="256" cy="304.488" fill="#f4fbff" r="159.606"/></g><g><path d="m344.993 172.058c17.153 25.442 27.176 56.068 27.176 88.993 0 88.006-71.599 159.606-159.606 159.606-32.924 0-63.551-10.023-88.993-27.176 28.696 42.563 77.348 70.613 132.43 70.613 88.006 0 159.606-71.599 159.606-159.606 0-55.082-28.05-103.735-70.613-132.43z" fill="#d3effb"/></g><g><path d="m272.163 145.696c-5.316-.537-10.708-.814-16.163-.814s-10.847.277-16.163.814v22.42c0 5.579 4.523 10.102 10.102 10.102h12.122c5.579 0 10.102-4.523 10.102-10.102z" fill="#407093"/></g><g><path d="m97.208 288.325c-.537 5.316-.814 10.708-.814 16.163s.277 10.847.814 16.163h22.42c5.579 0 10.102-4.523 10.102-10.102v-12.122c0-5.579-4.523-10.102-10.102-10.102z" fill="#407093"/></g><g><path d="m239.837 463.28c5.316.537 10.708.814 16.163.814s10.847-.277 16.163-.814v-22.42c0-5.579-4.523-10.102-10.102-10.102h-12.122c-5.579 0-10.102 4.523-10.102 10.102z" fill="#407093"/></g><g><path d="m414.792 320.65c.537-5.316.814-10.708.814-16.163s-.277-10.847-.814-16.163h-22.42c-5.579 0-10.102 4.523-10.102 10.102v12.122c0 5.579 4.523 10.102 10.102 10.102z" fill="#407093"/></g><g><g><path d="m334.572 225.916-100.001 57.143 21.429 21.429 21.429 21.429z" fill="#b1e4f9"/></g><g><path d="m334.572 225.916-78.572 78.572 21.429 21.429z" fill="#90d8f9"/></g><g><path d="m176.714 383.774 100.715-57.857-21.429-21.429-21.429-21.429z" fill="#df75a5"/></g><g><path d="m176.714 383.774 100.715-57.857-21.429-21.429z" fill="#dd5790"/></g><g><circle cx="256" cy="304.488" fill="#ffd064" r="36.366"/></g><g><path d="m272.329 271.996c2.473 4.911 3.874 10.455 3.874 16.329 0 20.084-16.281 36.366-36.366 36.366-5.874 0-11.418-1.401-16.329-3.874 5.983 11.881 18.281 20.037 32.491 20.037 20.084 0 36.366-16.281 36.366-36.366.001-14.211-8.155-26.509-20.036-32.492z" fill="#ffc250"/></g></g><g><path d="m256 32.325c-13.048 0-23.663 10.615-23.663 23.663 0 13.047 10.615 23.662 23.663 23.662s23.663-10.615 23.663-23.662c0-13.048-10.615-23.663-23.663-23.663zm0 32.325c-4.776 0-8.663-3.886-8.663-8.662s3.887-8.663 8.663-8.663 8.663 3.887 8.663 8.663-3.887 8.662-8.663 8.662z"/><path d="m290.684 99.895c12.965-10.264 21.306-26.124 21.306-43.905 0-10.46-2.904-20.664-8.4-29.508-2.186-3.519-6.813-4.599-10.328-2.412-3.519 2.186-4.599 6.811-2.412 10.328 4.018 6.466 6.141 13.933 6.141 21.592 0 22.603-18.388 40.99-40.99 40.99s-40.99-18.388-40.99-40.99 18.386-40.99 40.989-40.99c3.983 0 7.934.574 11.74 1.708 3.974 1.181 8.146-1.08 9.328-5.049 1.182-3.97-1.079-8.146-5.049-9.328-5.196-1.547-10.585-2.331-16.019-2.331-30.873 0-55.99 25.117-55.99 55.99 0 17.766 8.327 33.613 21.272 43.878-30.92 5.189-60.18 17.317-86.012 35.836-3.366 2.414-4.139 7.099-1.726 10.466 2.414 3.367 7.102 4.137 10.466 1.726 32.773-23.496 71.5-35.915 111.99-35.915 106.15 0 192.51 86.359 192.51 192.51s-86.36 192.509-192.51 192.509-192.51-86.359-192.51-192.51c0-50.669 19.518-98.5 54.958-134.683 2.898-2.959 2.849-7.708-.11-10.606-2.961-2.898-7.708-2.848-10.606.11-38.203 39.003-59.242 90.562-59.242 145.179 0 114.421 93.089 207.51 207.51 207.51s207.51-93.089 207.51-207.51c0-102.604-74.859-188.04-172.826-204.595z"/><path d="m400.457 372.76c3.819 1.598 8.215-.205 9.812-4.027 8.521-20.383 12.841-41.997 12.841-64.242 0-92.145-74.966-167.11-167.11-167.11s-167.11 74.965-167.11 167.109c0 92.139 74.966 167.1 167.11 167.1 54.131 0 105.175-26.489 136.544-70.859 2.392-3.383 1.588-8.062-1.794-10.454-3.384-2.391-8.064-1.587-10.454 1.794-23.934 33.854-60.441 56.265-100.633 62.643v-13.854c0-9.705-7.896-17.602-17.603-17.602h-12.121c-9.706 0-17.603 7.896-17.603 17.602v13.887c-64.963-10.19-116.414-61.637-126.604-126.596h13.895c9.705 0 17.602-7.896 17.602-17.602v-12.122c0-9.705-7.896-17.602-17.602-17.602h-13.894c10.191-64.961 61.642-116.411 126.603-126.602v13.893c0 9.705 7.896 17.602 17.603 17.602h12.121c9.706 0 17.603-7.896 17.603-17.602v-13.893c64.961 10.19 116.412 61.64 126.603 126.602h-13.894c-9.705 0-17.602 7.896-17.602 17.602v12.122c0 9.705 7.896 17.602 17.602 17.602h13.9c-1.867 11.93-5.149 23.571-9.842 34.797-1.598 3.821.206 8.214 4.027 9.812zm-153.12 68.099c0-1.435 1.168-2.602 2.603-2.602h12.121c1.435 0 2.603 1.167 2.603 2.602v15.474c-2.876.165-5.764.256-8.663.256-2.908 0-5.795-.09-8.663-.252v-15.478zm-127.709-145.034c1.435 0 2.602 1.167 2.602 2.602v12.122c0 1.435-1.167 2.602-2.602 2.602h-15.486c-.162-2.867-.252-5.753-.252-8.66 0-2.909.09-5.796.252-8.665h15.486zm145.035-127.709c0 1.435-1.168 2.602-2.603 2.602h-12.121c-1.435 0-2.603-1.167-2.603-2.602v-15.484c2.868-.162 5.755-.252 8.663-.252s5.795.09 8.663.252v15.484zm127.709 145.034c-1.435 0-2.602-1.167-2.602-2.602v-12.122c0-1.435 1.167-2.602 2.602-2.602h15.486c.162 2.869.252 5.756.252 8.665 0 2.9-.09 5.786-.251 8.66h-15.487z"/><path d="m339.874 220.617c-2.392-2.394-6.088-2.889-9.024-1.209l-72.313 41.315c-12.063-.693-24.359 3.551-33.555 12.747-9.164 9.164-13.411 21.407-12.755 33.43l-42.02 73.134c-1.688 2.938-1.196 6.644 1.199 9.039 1.444 1.445 3.365 2.197 5.306 2.197 1.279 0 2.566-.326 3.733-.996l73.108-41.992c.812.044 1.627.072 2.447.072 11.717 0 22.732-4.562 31.019-12.848 9.196-9.197 13.439-21.493 12.746-33.557l41.318-72.308c1.677-2.937 1.183-6.632-1.209-9.024zm-142.836 142.827 21.122-36.763c1.848 3.152 4.12 6.123 6.822 8.824 2.675 2.675 5.638 4.955 8.814 6.825zm79.373-38.546c-11.254 11.256-29.568 11.256-40.822 0-11.255-11.254-11.255-29.567 0-40.821 5.627-5.628 13.02-8.441 20.411-8.441s14.784 2.813 20.411 8.441c11.255 11.254 11.255 29.568 0 40.821zm17.37-42.711c-1.837-3.113-4.091-6.046-6.762-8.718-2.672-2.672-5.605-4.926-8.719-6.763l36.117-20.635z"/></g></g></svg>