<svg width="154" height="154" xmlns="http://www.w3.org/2000/svg">
 <!-- Generator: Sketch 53.2 (72643) - https://sketchapp.com -->
 <title>Logo converted@2x</title>
 <desc>Created with Sketch.</desc>
 <defs>
  <linearGradient id="linearGradient-1" y2="99.8790739%" x2="100%" y1="0.120926067%" x1="0%">
   <stop offset="0%" stop-color="#FF3367"/>
   <stop offset="26.7947635%" stop-color="#FF3393"/>
   <stop offset="100%" stop-color="#844FFF"/>
  </linearGradient>
  <linearGradient id="linearGradient-2" y2="99.8749963%" x2="100%" y1="0.125003744%" x1="0%">
   <stop offset="0%" stop-color="#FF3367"/>
   <stop offset="26.7947635%" stop-color="#FF3393"/>
   <stop offset="100%" stop-color="#844FFF"/>
  </linearGradient>
 </defs>
 <g>
  <title>background</title>
  <rect fill="none" id="canvas_background" height="156" width="156" y="-1" x="-1"/>
 </g>
 <g>
  <title>Layer 1</title>
  <g id="Up">
   <polygon points="8.54541015625,145.45458984375 138.71392822265625,145.45458984375 138.71392822265625,154.54541015625 -0.54541015625,154.54541015625 -0.54541015625,15.45458984375 8.54541015625,15.45458984375 " fill="url(#linearGradient-1)" id="Layer"/>
   <polygon points="17.6534423828125,0 154.1878662109375,0 154.1878662109375,136.3636474609375 17.6534423828125,136.3636474609375 " fill="url(#linearGradient-2)" id="Surface"/>
   <path fill="#FFFFFF" id="up" d="m81.00541,49.09091l0,43.81818c0,0.63636 -0.27307,0.90909 -0.91023,0.90909l-9.10229,0c-0.63716,0 -0.91023,-0.27273 -0.91023,-0.90909l0,-3.27273c-3.73194,3.09091 -7.919,5.09091 -13.74447,5.09091c-9.9215,0 -15.92901,-5.90909 -15.92901,-15.36363l0,-30.27273c0,-0.63636 0.27307,-0.90909 0.91023,-0.90909l9.10229,0c0.63716,0 0.91023,0.27273 0.91023,0.90909l0,26.36364c0,6.81818 2.82171,9.45454 7.82797,9.45454c5.73445,0 10.92276,-4.36364 10.92276,-15.18182l0,-20.63636c0,-0.63636 0.27307,-0.90909 0.91023,-0.90909l9.10229,0c0.63716,0 0.91023,0.27273 0.91023,0.90909zm5.64342,61.81818l0,-61.81818c0,-0.63636 0.27307,-0.90909 0.91023,-0.90909l9.1023,0c0.63716,0 0.91023,0.27273 0.91023,0.90909l0,2.81818c3.45887,-2.81818 7.64592,-4.63636 13.1073,-4.63636c12.2881,0 20.75323,9.09091 20.75323,23.72727c0,14.63636 -8.46513,23.72727 -20.75323,23.72727c-5.00626,0 -9.19332,-1.45454 -13.1073,-4.54545l0,20.72727c0,0.63637 -0.27307,0.90909 -0.91023,0.90909l-9.1023,0c-0.63716,0 -0.91023,-0.27272 -0.91023,-0.90909zm10.37662,-39.90909c0,7.81818 4.27808,13.90909 11.46889,13.90909c7.19081,0 11.46889,-6.09091 11.46889,-13.90909c0,-7.81818 -4.27808,-13.90909 -11.46889,-13.90909c-7.19081,0 -11.46889,6.09091 -11.46889,13.90909z"/>
  </g>
 </g>
</svg>