<svg width="506" height="205" xmlns="http://www.w3.org/2000/svg">
 <!-- Generator: Sketch 53.2 (72643) - https://sketchapp.com -->
 <title>Logo converted@2x</title>
 <desc>Created with Sketch.</desc>
 <defs>
  <linearGradient id="linearGradient-1" y2="99.8790739%" x2="100%" y1="0.120926067%" x1="0%">
   <stop offset="0%" stop-color="#FF3367"/>
   <stop offset="26.7947635%" stop-color="#FF3393"/>
   <stop offset="100%" stop-color="#844FFF"/>
  </linearGradient>
  <linearGradient id="linearGradient-2" y2="99.8749963%" x2="100%" y1="0.125003744%" x1="0%">
   <stop offset="0%" stop-color="#FF3367"/>
   <stop offset="26.7947635%" stop-color="#FF3393"/>
   <stop offset="100%" stop-color="#844FFF"/>
  </linearGradient>
 </defs>
 <g>
  <title>background</title>
  <rect fill="none" id="canvas_background" height="207" width="508" y="-1" x="-1"/>
 </g>
 <g>
  <title>Layer 1</title>
  <g fill-rule="evenodd" fill="none" id="Page-1">
   <g id="Artboard">
    <g id="Logo-converted">
     <rect height="249" width="557" y="-21.980007" x="-21.475825" id="bg"/>
     <g fill-rule="nonzero" id="Logo">
      <g id="Up">
       <polygon points="29.069583892822266,170.47458267211914 159.23809814453125,170.47458267211914 159.23809814453125,179.56540298461914 19.9787654876709,179.56540298461914 19.9787654876709,40.47458267211914 29.069583892822266,40.47458267211914 " fill="url(#linearGradient-1)" id="Layer"/>
       <polygon points="38.177616119384766,25.01999282836914 174.7120361328125,25.01999282836914 174.7120361328125,161.38364028930664 38.177616119384766,161.38364028930664 " fill="url(#linearGradient-2)" id="Surface"/>
       <path fill="#FFFFFF" id="up" d="m101.529585,74.110903l0,43.81818c0,0.63636 -0.27307,0.90909 -0.91023,0.90909l-9.10229,0c-0.63716,0 -0.91023,-0.27273 -0.91023,-0.90909l0,-3.27273c-3.73194,3.09091 -7.919,5.09091 -13.74447,5.09091c-9.9215,0 -15.92901,-5.90909 -15.92901,-15.36363l0,-30.27273c0,-0.63636 0.27307,-0.90909 0.91023,-0.90909l9.10229,0c0.63716,0 0.91023,0.27273 0.91023,0.90909l0,26.36364c0,6.81818 2.82171,9.45454 7.82797,9.45454c5.73445,0 10.92276,-4.36364 10.92276,-15.18182l0,-20.63636c0,-0.63636 0.27307,-0.90909 0.91023,-0.90909l9.10229,0c0.63716,0 0.91023,0.27273 0.91023,0.90909zm5.64342,61.81818l0,-61.81818c0,-0.63636 0.27307,-0.90909 0.91023,-0.90909l9.1023,0c0.63716,0 0.91023,0.27273 0.91023,0.90909l0,2.81818c3.45887,-2.81818 7.64592,-4.63636 13.1073,-4.63636c12.2881,0 20.75323,9.09091 20.75323,23.72727c0,14.63636 -8.46513,23.72727 -20.75323,23.72727c-5.00626,0 -9.19332,-1.45454 -13.1073,-4.54545l0,20.72727c0,0.63637 -0.27307,0.90909 -0.91023,0.90909l-9.1023,0c-0.63716,0 -0.91023,-0.27272 -0.91023,-0.90909zm10.37662,-39.90909c0,7.81818 4.27808,13.90909 11.46889,13.90909c7.19081,0 11.46889,-6.09091 11.46889,-13.90909c0,-7.81818 -4.27808,-13.90909 -11.46889,-13.90909c-7.19081,0 -11.46889,6.09091 -11.46889,13.90909z"/>
      </g>
      <path fill="#000000" stroke-width="1.2" stroke="#000000" id="leveled" d="m200.744175,75.499993l0,-3.78c0,-0.49 0.21,-0.7 0.7,-0.7l13.51,0c0.49,0 0.7,0.21 0.7,0.7l0,43.12l10.22,0c0.49,0 0.7,0.21 0.7,0.7l0,3.78c0,0.49 -0.21,0.7 -0.7,0.7l-25.83,0c-0.49,0 -0.7,-0.21 -0.7,-0.7l0,-3.78c0,-0.49 0.21,-0.7 0.7,-0.7l10.15,0l0,-38.64l-8.75,0c-0.49,0 -0.7,-0.21 -0.7,-0.7zm70.41,28.63l-26.32,0c0.56,6.58 4.06,11.41 10.85,11.41c5.04,0 7.91,-2.03 9.59,-6.44c0.21,-0.56 0.49,-0.63 0.98,-0.63l4.55,0c0.35,0 0.49,0.21 0.49,0.49c0,0.14 0,0.28 -0.14,0.7c-2.52,7.35 -7.7,11.06 -15.47,11.06c-10.92,0 -16.73,-7.98 -16.73,-18.27c0,-10.29 6.65,-18.27 16.73,-18.27c10.64,0 16.17,8.54 16.17,18.27l0,0.98c0,0.49 -0.21,0.7 -0.7,0.7zm-15.47,-14.77c-5.25,0 -9.45,3.64 -10.57,9.59l20.86,0c-1.12,-5.74 -5.25,-9.59 -10.29,-9.59zm59.91,-3.36l-12.25,33.32c-0.21,0.49 -0.42,0.7 -0.84,0.7l-4.9,0c-0.42,0 -0.63,-0.21 -0.84,-0.7l-12.25,-33.32c-0.07,-0.21 -0.07,-0.35 -0.07,-0.49c0,-0.42 0.28,-0.63 0.63,-0.63l4.76,0c0.56,0 0.84,0.21 0.98,0.7l9.24,27.02l9.24,-27.02c0.14,-0.49 0.42,-0.7 0.98,-0.7l4.76,0c0.35,0 0.63,0.21 0.63,0.63c0,0.14 0,0.28 -0.07,0.49zm44.79,18.13l-26.32,0c0.56,6.58 4.06,11.41 10.85,11.41c5.04,0 7.91,-2.03 9.59,-6.44c0.21,-0.56 0.49,-0.63 0.98,-0.63l4.55,0c0.35,0 0.49,0.21 0.49,0.49c0,0.14 0,0.28 -0.14,0.7c-2.52,7.35 -7.7,11.06 -15.47,11.06c-10.92,0 -16.73,-7.98 -16.73,-18.27c0,-10.29 6.65,-18.27 16.73,-18.27c10.64,0 16.17,8.54 16.17,18.27l0,0.98c0,0.49 -0.21,0.7 -0.7,0.7zm-15.47,-14.77c-5.25,0 -9.45,3.64 -10.57,9.59l20.86,0c-1.12,-5.74 -5.25,-9.59 -10.29,-9.59zm31,-13.86l0,-3.78c0,-0.49 0.21,-0.7 0.7,-0.7l13.51,0c0.49,0 0.7,0.21 0.7,0.7l0,43.12l10.22,0c0.49,0 0.7,0.21 0.7,0.7l0,3.78c0,0.49 -0.21,0.7 -0.7,0.7l-25.83,0c-0.49,0 -0.7,-0.21 -0.7,-0.7l0,-3.78c0,-0.49 0.21,-0.7 0.7,-0.7l10.15,0l0,-38.64l-8.75,0c-0.49,0 -0.7,-0.21 -0.7,-0.7zm70.41,28.63l-26.32,0c0.56,6.58 4.06,11.41 10.85,11.41c5.04,0 7.91,-2.03 9.59,-6.44c0.21,-0.56 0.49,-0.63 0.98,-0.63l4.55,0c0.35,0 0.49,0.21 0.49,0.49c0,0.14 0,0.28 -0.14,0.7c-2.52,7.35 -7.7,11.06 -15.47,11.06c-10.92,0 -16.73,-7.98 -16.73,-18.27c0,-10.29 6.65,-18.27 16.73,-18.27c10.64,0 16.17,8.54 16.17,18.27l0,0.98c0,0.49 -0.21,0.7 -0.7,0.7zm-15.47,-14.77c-5.25,0 -9.45,3.64 -10.57,9.59l20.86,0c-1.12,-5.74 -5.25,-9.59 -10.29,-9.59zm63.34,-17.64l0,47.6c0,0.49 -0.21,0.7 -0.7,0.7l-4.06,0c-0.49,0 -0.7,-0.21 -0.7,-0.7l0,-3.29c-2.17,2.8 -6.09,4.69 -10.85,4.69c-9.1,0 -15.05,-7.07 -15.05,-18.27c0,-11.2 5.95,-18.27 15.05,-18.27c4.41,0 8.47,2.03 10.85,4.69l0,-17.15c0,-0.49 0.21,-0.7 0.7,-0.7l4.06,0c0.49,0 0.7,0.21 0.7,0.7zm-4.9,30.73c0,-7.35 -3.64,-13.09 -10.29,-13.09c-6.65,0 -10.43,5.74 -10.43,13.09c0,7.35 3.78,13.09 10.43,13.09c6.65,0 10.29,-5.74 10.29,-13.09z"/>
     </g>
    </g>
   </g>
  </g>
 </g>
</svg>